<?xml version="1.0" encoding="utf-8"?>
<!-- Generator: Adobe Illustrator 22.0.0, SVG Export Plug-In . SVG Version: 6.00 Build 0)  -->
<svg version="1.1" id="Layer_1" xmlns="http://www.w3.org/2000/svg" xmlns:xlink="http://www.w3.org/1999/xlink" x="0px" y="0px"
	 viewBox="0 0 557.2 102.8" style="enable-background:new 0 0 557.2 102.8;" xml:space="preserve">
<style type="text/css">
	.st0{fill:url(#SVGID_1_);}
	.st1{fill:url(#SVGID_2_);}
	.st2{fill:#00A04D;}
	.st3{fill:#B3B3B3;}
</style>
<linearGradient id="SVGID_1_" gradientUnits="userSpaceOnUse" x1="171.6036" y1="31.6129" x2="171.6036" y2="1.75">
	<stop  offset="0" style="stop-color:#B38F4A"/>
	<stop  offset="0.2033" style="stop-color:#F8E6A0"/>
	<stop  offset="0.2296" style="stop-color:#F9E49A"/>
	<stop  offset="0.267" style="stop-color:#FEDF87"/>
	<stop  offset="0.2747" style="stop-color:#FFDD82"/>
	<stop  offset="0.4505" style="stop-color:#997537"/>
	<stop  offset="0.7363" style="stop-color:#FFDD82"/>
	<stop  offset="0.8132" style="stop-color:#F8E6A0"/>
	<stop  offset="1" style="stop-color:#C7A358"/>
</linearGradient>
<path class="st0" d="M178.3,19.6l-6.4,4.1l2.7-7.1l7.8-5.8L178.3,19.6z M179.2,29.8l-2.9-4.5l-4.2-0.9l2,3.8L179.2,29.8z
	 M164.9,19.6l6.4,4.1l-2.7-7.1l-7.8-5.8L164.9,19.6z M165.2,25l6-1l-5.3-3l-7.7,0.7L165.2,25z M185.1,21.8l-7.7-0.7l-5.3,3l6,1
	L185.1,21.8z M169.1,28.2l2-3.8l-4.2,0.9l-2.9,4.5L169.1,28.2z M171.6,1.8l-3.2,12.3l3.2,9.5l3.2-9.5L171.6,1.8z M174.6,31.6
	l-3.1-7.3l-3.1,7.3l3.1-3.8L174.6,31.6z"/>
<linearGradient id="SVGID_2_" gradientUnits="userSpaceOnUse" x1="162.8889" y1="27.6131" x2="180.3079" y2="10.1942">
	<stop  offset="0" style="stop-color:#B38F4A"/>
	<stop  offset="0.2033" style="stop-color:#F8E6A0"/>
	<stop  offset="0.2296" style="stop-color:#F9E49A"/>
	<stop  offset="0.267" style="stop-color:#FEDF87"/>
	<stop  offset="0.2747" style="stop-color:#FFDD82"/>
	<stop  offset="0.4505" style="stop-color:#997537"/>
	<stop  offset="0.7363" style="stop-color:#FFDD82"/>
	<stop  offset="0.8132" style="stop-color:#F8E6A0"/>
	<stop  offset="1" style="stop-color:#C7A358"/>
</linearGradient>
<path class="st1" d="M171.6,27.4l-2.1,2.6l2.1-4.9l2.1,4.9L171.6,27.4z M174.3,27.9l-1.7-3.2l3.5,0.8l2.4,3.8L174.3,27.9z
	 M167.1,25.5l3.5-0.8l-1.7,3.2l-4.3,1.4L167.1,25.5z M159.1,21.9l6.7-0.6l4.6,2.6l-5.2,0.9L159.1,21.9z M172.8,23.9l4.6-2.6l6.7,0.6
	l-6.1,2.8L172.8,23.9z M174.9,16.7l6.9-5.1l-3.6,7.8l-5.7,3.6L174.9,16.7z M165.1,19.4l-3.6-7.8l6.9,5.1l2.4,6.3L165.1,19.4z
	 M168.7,14.1l2.9-11.3l2.9,11.3l-2.9,8.6L168.7,14.1z"/>
<path class="st2" d="M37.7,60.3v9.1c-0.1,2.7-0.9,5.2-2.2,7.2c-1.1,1.8-2.8,3.5-5.3,4.9c-2.5,1.4-5.8,2.3-10.2,2.3
	c-4.4,0-7.9-0.8-10.3-2.3c-2.5-1.4-4.1-3.1-5.2-4.9c-1.4-2.1-2.1-4.5-2.2-7.2V30.3c0.1-2.6,0.9-5.1,2.2-7.1c1.1-1.8,2.7-3.6,5.2-5
	c2.5-1.4,5.9-2.3,10.3-2.3c4.4,0,7.7,0.9,10.2,2.3c2.5,1.4,4.2,3.2,5.3,5c1.4,2.1,2.1,4.5,2.2,7.1v9.1H25.3v-9.1
	c0-1.8-0.6-3.1-2-4.2c-0.6-0.5-1.7-0.7-3.1-0.7c-2.3,0-3.4,1.3-4.1,2.4c-0.4,0.7-0.5,1.5-0.6,2.4v39.2c0.1,1.9,0.9,3.2,2.1,4.2
	c0.6,0.5,1.5,0.7,2.6,0.7c2.8,0,3.9-1.1,4.5-2.4c0.4-0.6,0.5-1.4,0.5-2.4v-9.1H37.7z"/>
<path class="st2" d="M64.5,45.4c0-0.8,0-2.1-0.4-3c-0.5-0.9-1.5-1.5-3.1-1.5c-2.1,0-2.9,1.2-3.3,2.6c-0.1,0.7-0.2,1.5-0.2,2.4
	c0,0.8,0,1.6,0,2.4H45.1v-2.1c0-3.6,1.8-6.9,4.8-9.3c2.9-2.4,7.1-3.9,11.9-3.9c4.1,0,7.7,1.2,10.6,3.2c2.8,2,4.5,4.8,4.5,8v30.4
	c0,4.4,0.4,6.4,0.9,8.6H65.6c-1.1-1-1.1-3.3-1.1-4h-0.9c-0.6,0.8-1.7,2-3.4,3c-1.7,1-4.1,1.7-6.5,1.7c-1.6,0-4.2-0.5-6.1-2.3
	c-2.1-1.7-3.8-4.8-3.8-9.9c0-5.5,2.2-9.5,5.2-12.2c2.9-2.7,6.6-4.4,9.7-5.6c3.1-1.2,5.4-2,5.9-3V45.4z M64.5,59.2
	c-6,1.9-8.6,6.3-8.6,11c0,0.6,0.1,1.7,0.6,2.7c0.5,1.1,1.4,1.9,2.8,1.9c2.8,0,5.2-1.3,5.2-3V59.2z"/>
<path class="st2" d="M97.4,83.1H85V33.6h12.4v4.2c0.2-0.1,0.7-0.5,1.5-1c1.4-1,3.2-2.4,5.4-3.3c1.1-0.5,2.1-0.6,3.2-0.6
	c3.3,0,5.7,1.4,7.1,3.3c1.5,1.9,2.2,4.3,2.2,6.4v40.5h-12.4V43.9c0-1.9-1.5-2.2-2.9-2.2c-1.4,0-2.1,0.5-2.9,1.2
	c-0.4,0.4-0.7,0.7-1.1,1.2V83.1z"/>
<path class="st2" d="M157.1,71c-0.4,4.8-2.3,8.1-6.6,10.8c-2.2,1.4-5.3,2-9.3,2c-8,0-11.9-3.3-13.9-6.5c-1.1-1.9-1.8-4.1-2-6.5V45.9
	c0.4-4.8,2.3-8.3,6.6-11c2.1-1.4,5.2-2,9.2-2c8,0,12,3.3,14,6.4c1.1,1.9,1.8,4,2,6.3V71z M145.5,45.9c0.1-1.9-0.4-3.3-1.6-4.3
	c-0.6-0.5-1.6-0.7-2.7-0.7c-2.3,0-3.3,1.2-3.8,2.5c-0.4,0.7-0.5,1.5-0.4,2.5v24.9c-0.1,1.9,0.5,3.3,1.6,4.3c0.6,0.5,1.5,0.7,2.6,0.7
	c2.3,0,3.4-1.1,3.9-2.4c0.4-0.7,0.5-1.5,0.4-2.5V45.9z"/>
<path class="st2" d="M177.9,33.6v50.7c0,2.5,0,6.5-1.7,9.8c-1.7,3.3-5.5,6-12.5,6c-2,0-3.3-0.1-4.2-0.3c-0.5-0.1-0.9-0.2-1.2-0.3
	v-8.4c0.4,0.1,0.7,0.1,1.1,0.2c0.9,0.1,1.6,0.2,2.3,0.2c2.1,0,3.1-1.3,3.6-2.8c0.1-0.7,0.2-1.5,0.2-2.4c0-0.8,0-1.5,0-2.1V33.6
	H177.9z"/>
<path class="st2" d="M206.5,45.4c0-0.8,0-2.1-0.4-3c-0.5-0.9-1.5-1.5-3.1-1.5c-2.1,0-2.9,1.2-3.3,2.6c-0.1,0.7-0.2,1.5-0.2,2.4
	c0,0.8,0,1.6,0,2.4h-12.4v-2.1c0-3.6,1.8-6.9,4.8-9.3c2.9-2.4,7.1-3.9,11.9-3.9c4.1,0,7.7,1.2,10.6,3.2c2.8,2,4.5,4.8,4.5,8v30.4
	c0,4.4,0.4,6.4,0.9,8.6h-12.2c-1.1-1-1.1-3.3-1.1-4h-0.9c-0.6,0.8-1.7,2-3.4,3c-1.7,1-4.1,1.7-6.5,1.7c-1.6,0-4.2-0.5-6.1-2.3
	c-2.1-1.7-3.8-4.8-3.8-9.9c0-5.5,2.2-9.5,5.2-12.2c2.9-2.7,6.6-4.4,9.7-5.6c3.1-1.2,5.4-2,5.9-3V45.4z M206.5,59.2
	c-6,1.9-8.6,6.3-8.6,11c0,0.6,0.1,1.7,0.6,2.7c0.5,1.1,1.4,1.9,2.8,1.9c2.8,0,5.2-1.3,5.2-3V59.2z"/>
<g>
	<path class="st3" d="M229.2,25.7V15.5h28.7v10.2h-9.4v57.3h-9.9V25.7H229.2z"/>
	<path class="st3" d="M282.4,65.1v5.8c-0.3,4.9-1.7,8.3-5.1,10.9c-1.7,1.4-4,2-7,2c-6,0-9-3.3-10.5-6.6c-0.8-1.9-1.4-4.1-1.5-6.6
		V45.3c0.3-4.9,1.8-8.5,5.1-11.2c1.6-1.4,3.9-2,6.9-2c6,0,9,3.3,10.5,6.5c0.8,1.9,1.4,4,1.5,6.4v14.6h-15.3v10.9
		c0.1,1.9,0.6,3.3,1.5,4.3c0.5,0.5,1.1,0.7,1.9,0.7c1.7,0,2.6-1.1,2.9-2.5c0.3-0.7,0.4-1.6,0.4-2.6v-5.5H282.4z M267.1,52.4h6.7
		v-7.1c0-1.9-0.4-3.3-1.3-4.4c-0.5-0.5-1.2-0.7-2-0.7c-1.7,0-2.5,1.2-2.9,2.6c-0.3,0.7-0.4,1.6-0.5,2.6V52.4z"/>
	<path class="st3" d="M297.3,71.5c0,1.8,0.1,4,2.6,4c2.1,0,2.7-1,2.7-4v-7h9.3v4.9c0,5.6-1,9.2-3,11.4c-2,2.2-5,3-8.9,3
		c-3.3,0-6.3-0.9-8.5-3.2s-3.4-6.1-3.4-11.7V47c0-5.6,1.3-9.4,3.4-11.7c2.1-2.3,5.1-3.2,8.5-3.2c4,0,6.9,0.8,8.9,3
		c2,2.2,3,5.8,3,11.4v4h-9.3v-6.1c0-3-0.6-4-2.7-4c-2.5,0-2.6,2.2-2.6,4V71.5z"/>
	<path class="st3" d="M327,83.1h-9.3V15.5h9.3V37c0.2-0.1,0.6-0.5,1.1-1c1-1,2.4-2.4,4-3.3c0.8-0.5,1.6-0.6,2.4-0.6
		c2.5,0,4.2,1.5,5.3,3.3c1.1,1.9,1.7,4.4,1.7,6.5v41.2h-9.3V43.3c0-1.9-1.1-2.2-2.2-2.2c-1,0-1.6,0.6-2.2,1.2
		c-0.3,0.4-0.6,0.7-0.8,1.2V83.1z"/>
	<path class="st3" d="M358,83.1h-9.3V32.8h9.3V37c0.2-0.1,0.6-0.5,1.1-1c1-1,2.4-2.4,4-3.3c0.8-0.5,1.6-0.6,2.4-0.6
		c2.5,0,4.2,1.5,5.3,3.3c1.1,1.9,1.7,4.4,1.7,6.5v41.2h-9.3V43.3c0-1.9-1.1-2.2-2.2-2.2c-1,0-1.6,0.6-2.2,1.2
		c-0.3,0.4-0.6,0.7-0.8,1.2V83.1z"/>
	<path class="st3" d="M402.6,70.9c-0.3,4.9-1.7,8.3-5,10.9c-1.7,1.4-4,2-7,2c-6,0-8.9-3.3-10.4-6.6c-0.8-1.9-1.4-4.1-1.5-6.6V45.3
		c0.3-4.9,1.7-8.5,5-11.2c1.6-1.4,3.9-2,6.9-2c6,0,9,3.3,10.5,6.5c0.8,1.9,1.4,4,1.5,6.4V70.9z M393.9,45.3c0.1-1.9-0.3-3.3-1.2-4.4
		c-0.5-0.5-1.2-0.7-2-0.7c-1.7,0-2.5,1.2-2.8,2.6c-0.3,0.7-0.4,1.6-0.3,2.6v25.3c-0.1,1.9,0.4,3.3,1.2,4.3c0.5,0.5,1.1,0.7,1.9,0.7
		c1.7,0,2.6-1.1,2.9-2.5c0.3-0.7,0.4-1.6,0.3-2.6V45.3z"/>
	<path class="st3" d="M409,83.1V15.5h9.3v67.5H409z"/>
	<path class="st3" d="M448.4,70.9c-0.3,4.9-1.7,8.3-5,10.9c-1.7,1.4-4,2-7,2c-6,0-8.9-3.3-10.4-6.6c-0.8-1.9-1.4-4.1-1.5-6.6V45.3
		c0.3-4.9,1.7-8.5,5-11.2c1.6-1.4,3.9-2,6.9-2c6,0,9,3.3,10.5,6.5c0.8,1.9,1.4,4,1.5,6.4V70.9z M439.7,45.3c0.1-1.9-0.3-3.3-1.2-4.4
		c-0.5-0.5-1.2-0.7-2-0.7c-1.7,0-2.5,1.2-2.8,2.6c-0.3,0.7-0.4,1.6-0.3,2.6v25.3c-0.1,1.9,0.4,3.3,1.2,4.3c0.5,0.5,1.1,0.7,1.9,0.7
		c1.7,0,2.6-1.1,2.9-2.5c0.3-0.7,0.4-1.6,0.3-2.6V45.3z"/>
	<path class="st3" d="M477.6,58.8c-0.3,4.7-1.9,8-5.1,10.5c-1.7,1.3-4,1.9-6.8,1.9c-0.3,0-0.6,0-0.8,0c-0.3,0-0.6,0-0.9-0.1
		c-0.8,0.7-1.3,1.5-1.3,2.3c0,1.1,0.9,1.7,2.3,2.1c1.4,0.5,3,0.7,4.8,1c2.9,0.4,6.1,1.1,8.6,2.8c2.5,1.7,4.2,4.4,4.2,8.8
		c0,4.9-2.1,8.2-5.1,10.1c-3,1.9-7.1,2.8-10.8,2.8c-4.4-0.1-8.2-0.7-10.8-2.2c-2.7-1.5-4.1-3.9-4.1-7.5c0-1.7,0.9-3.2,2.3-4.5
		s3.2-2.3,5-3.1c-3-0.8-5.6-2.8-5.6-6.7c0-1.5,0.8-2.9,1.9-4.3c1.1-1.4,2.5-2.5,3.9-3.2c-2.7-1.7-4-4.5-4.6-6.8
		c-0.4-1.4-0.6-2.8-0.7-4.1V44.8c0.4-4.7,1.8-8.1,5.1-10.8c1.6-1.4,3.9-2,6.7-2c4.7,0,7.5,2.1,9.3,4.6c0.6-0.6,1.7-1.7,3.2-2.8
		c1.4-1,2.9-1.8,4.4-1.8v8.3c-2.5,0-4.3,0.5-5.4,1.1c0.1,0.5,0.2,0.9,0.3,1.2c0,0.4,0,0.7,0.1,1c0.1,0.3,0.1,0.6,0.1,0.9V58.8z
		 M464.2,85.4c-1.9,1.1-3.4,2.5-3.4,4.4s1.7,3.5,6.1,3.5c1.6,0,3.3-0.3,4.7-0.8c1.4-0.6,2.4-1.4,2.4-2.6c0-0.8-0.1-1.5-0.7-2.1
		c-0.7-0.6-1.9-1.1-4.2-1.5L464.2,85.4z M468.5,45.2c0-1.7-0.4-2.8-1.1-3.9c-0.4-0.5-0.9-0.7-1.7-0.7c-1.5,0-2.2,1.2-2.5,2.3
		c-0.2,0.6-0.3,1.5-0.2,2.3V59c-0.1,1.7,0.2,2.8,1,3.8c0.4,0.5,0.9,0.7,1.7,0.7c1.6,0,2.2-1.1,2.6-2.2c0.2-0.6,0.3-1.5,0.3-2.3V45.2
		z"/>
	<path class="st3" d="M486.4,15.5h9.3v9.3h-9.3V15.5z M486.4,83.1V32.8h9.3v50.3H486.4z"/>
	<path class="st3" d="M526.1,65.1v5.8c-0.3,4.9-1.7,8.3-5.1,10.9c-1.7,1.4-4,2-7,2c-6,0-9-3.3-10.5-6.6c-0.8-1.9-1.4-4.1-1.5-6.6
		V45.3c0.3-4.9,1.8-8.5,5.1-11.2c1.6-1.4,3.9-2,6.9-2c6,0,9,3.3,10.5,6.5c0.8,1.9,1.4,4,1.5,6.4v14.6h-15.3v10.9
		c0.1,1.9,0.6,3.3,1.5,4.3c0.5,0.5,1.1,0.7,1.9,0.7c1.7,0,2.6-1.1,2.9-2.5c0.3-0.7,0.4-1.6,0.4-2.6v-5.5H526.1z M510.7,52.4h6.7
		v-7.1c0-1.9-0.4-3.3-1.3-4.4c-0.5-0.5-1.2-0.7-2-0.7c-1.7,0-2.5,1.2-2.9,2.6c-0.3,0.7-0.4,1.6-0.5,2.6V52.4z"/>
	<path class="st3" d="M546.1,45.7c0-1.2,0-2.7-0.4-3.9c-0.5-1.1-1.2-2-2.7-2c-1.2,0-1.9,0.9-2.3,2c-0.5,1.1-0.6,2.7-0.6,3.9
		c0,1.6,0.8,3.2,2,4.7c1.1,1.5,2.6,2.9,4,4.3c1.9,1.9,4.2,4.1,5.8,6.6c1.6,2.6,2.8,5.4,2.8,8.7c0,3.2-0.7,6.6-2.6,9.2
		c-1.9,2.7-4.9,4.6-9.3,4.6c-5.6,0-8.9-2.6-10.8-5.7c-1.8-3.1-2.2-7-2.2-9.6h8.6c0,1.4,0.1,3.3,0.7,4.8c0.6,1.6,1.7,2.8,3.6,2.8
		c2.7,0,3.2-3.1,3.2-6.1c0-3-2.9-6.1-5.8-8.9c-2.2-2.1-4.3-4-6-6.5c-1.7-2.5-2.8-5.2-2.8-8.9c0-2.9,0.6-6.3,2.3-9
		c1.7-2.6,4.6-4.5,9-4.6c5.4-0.1,8.5,1.9,10,4.6c1.6,2.7,1.8,6.2,1.8,9H546.1z"/>
</g>
</svg>
